<?xml version="1.0" standalone="no"?>
<!DOCTYPE svg PUBLIC "-//W3C//DTD SVG 20010904//EN"
 "http://www.w3.org/TR/2001/REC-SVG-20010904/DTD/svg10.dtd">
<svg version="1.0" xmlns="http://www.w3.org/2000/svg"
 width="512.000000pt" height="512.000000pt" viewBox="0 0 512.000000 512.000000"
 preserveAspectRatio="xMidYMid meet">

<g transform="translate(0.000000,512.000000) scale(0.100000,-0.100000)"
fill="#000000" stroke="none">
<path d="M1775 5110 c-6 -10 -31 -22 -125 -60 -52 -21 -121 -65 -128 -82 -2
-4 -10 -8 -18 -8 -8 0 -17 -7 -20 -15 -4 -8 -10 -15 -15 -15 -38 0 -380 -327
-402 -384 -4 -9 -11 -16 -16 -16 -5 0 -12 -8 -15 -18 -4 -10 -14 -27 -24 -38
-9 -11 -26 -35 -36 -54 -10 -19 -28 -46 -40 -60 -24 -28 -28 -36 -79 -135 -59
-118 -105 -219 -112 -248 -4 -15 -11 -30 -16 -33 -5 -3 -9 -18 -9 -33 0 -15
-3 -31 -6 -34 -11 -11 -43 -111 -44 -135 0 -13 -5 -32 -10 -42 -6 -11 -15 -70
-20 -132 -6 -62 -13 -135 -17 -163 -6 -53 10 -242 28 -335 6 -30 13 -68 16
-85 2 -16 8 -39 12 -50 33 -83 57 -193 67 -300 4 -46 24 -149 44 -235 5 -19
13 -80 19 -135 6 -55 13 -125 16 -155 3 -30 7 -238 8 -463 0 -224 4 -407 8
-407 8 0 19 52 19 91 0 16 5 29 11 29 21 0 -4 -261 -29 -307 -7 -12 -12 -33
-12 -47 0 -14 -7 -51 -15 -83 -21 -80 -20 -84 11 -73 14 6 52 10 85 10 33 0
67 4 77 10 9 5 51 18 92 29 41 11 90 25 107 32 46 19 55 5 59 -88 5 -99 12
-143 24 -143 6 0 10 -7 10 -15 0 -8 5 -15 10 -15 12 0 13 17 1 24 -5 4 -9 38
-10 77 0 38 -6 87 -12 108 -14 47 1 81 34 81 12 0 73 18 136 40 63 22 122 40
133 40 10 0 24 -11 30 -25 15 -34 48 -34 48 0 0 14 -4 25 -10 25 -20 0 -10 23
23 51 17 16 37 29 43 29 29 0 178 100 213 142 33 41 43 92 47 233 2 66 7 121
12 123 10 3 146 -86 180 -118 12 -11 26 -19 31 -16 4 3 17 -1 27 -9 10 -8 26
-15 34 -15 8 0 20 -8 27 -19 6 -10 27 -21 45 -24 18 -2 47 -10 64 -17 29 -12
41 -10 155 35 68 27 132 48 141 47 9 -2 24 9 34 23 10 16 21 22 28 17 18 -13
76 -8 86 8 8 12 10 10 11 -10 4 -63 15 -143 29 -203 9 -36 20 -54 48 -74 21
-15 52 -40 70 -56 19 -15 76 -48 128 -73 51 -25 96 -49 99 -54 3 -5 0 -18 -7
-29 -18 -29 -1 -38 22 -13 25 27 31 27 81 2 22 -12 44 -18 50 -14 6 3 18 0 27
-8 20 -17 89 -38 124 -38 41 0 48 -17 38 -95 -14 -103 -12 -145 4 -145 13 0
26 78 26 160 0 53 20 67 68 47 37 -17 102 -35 157 -43 64 -11 183 -39 335 -81
96 -26 120 -34 125 -44 4 -5 11 -9 16 -9 26 0 -7 502 -40 608 -6 19 -8 46 -5
60 3 15 1 38 -4 52 -8 22 -10 19 -17 -29 -7 -50 -9 -53 -21 -36 -8 10 -14 33
-14 51 0 18 -4 35 -9 38 -5 3 -12 32 -16 63 -4 32 -11 63 -15 68 -4 6 -10 30
-12 55 -5 43 -23 124 -38 165 -12 32 -31 106 -40 155 -4 25 -16 76 -25 114
-14 56 -15 76 -6 107 14 46 28 50 37 12 3 -16 9 -39 14 -53 5 -14 12 -44 15
-67 4 -24 11 -45 16 -49 5 -3 9 -15 9 -27 0 -21 11 -74 51 -237 10 -41 21
-101 25 -132 3 -32 10 -58 15 -58 21 0 9 141 -33 393 -8 50 -8 71 0 79 7 7 8
17 2 29 -19 34 -40 161 -40 237 0 48 -5 85 -13 97 -28 42 -49 155 -29 155 12
0 42 -34 42 -47 0 -14 25 -35 33 -27 3 3 -1 24 -9 47 -7 23 -23 73 -34 111
l-20 69 20 86 c11 47 24 102 30 121 5 19 11 49 14 65 3 17 13 68 23 115 30
145 19 450 -18 522 -5 10 -9 28 -9 40 0 41 -39 183 -69 253 -5 11 -16 40 -26
65 -9 25 -24 59 -33 75 -24 47 -28 55 -63 130 -18 39 -35 72 -38 75 -9 7 -61
89 -61 95 0 4 -68 102 -103 146 -85 110 -282 307 -344 342 -11 7 -64 45 -116
85 -53 39 -103 72 -111 72 -8 0 -17 4 -20 9 -4 5 -31 17 -61 26 -31 10 -55 24
-55 31 0 11 -19 14 -80 14 -64 0 -80 -3 -80 -15 0 -9 -9 -15 -24 -15 -14 0
-31 7 -40 15 -22 23 -39 19 -33 -7 4 -16 -2 -32 -20 -53 l-26 -29 -18 23 c-20
25 -25 56 -10 66 5 3 12 1 16 -5 7 -12 25 -4 25 11 0 5 -36 9 -80 9 -44 0 -80
-4 -80 -9 0 -5 -11 -12 -25 -15 -14 -4 -25 -11 -25 -16 0 -6 -10 -10 -21 -10
-12 0 -28 -8 -35 -17 -13 -17 -13 -17 -14 0 0 9 4 17 9 17 5 0 11 11 13 25 4
19 1 25 -11 25 -10 0 -23 -6 -29 -12 -10 -10 -15 -10 -22 2 -9 13 -11 13 -21
0 -8 -11 -12 -12 -16 -2 -7 17 -53 15 -67 -3 -10 -13 -15 -12 -44 2 -29 14
-36 14 -59 2 -21 -11 -27 -11 -30 -1 -3 8 -26 12 -69 12 -62 0 -64 -1 -64 -26
0 -21 -4 -25 -22 -22 -15 2 -24 11 -26 26 -3 16 -10 22 -28 22 -20 0 -24 -5
-24 -31 0 -22 -6 -32 -19 -36 -10 -2 -23 -15 -29 -28 -10 -22 -9 -23 16 -22
38 3 35 -22 -7 -47 -25 -14 -36 -16 -39 -8 -4 14 -52 16 -52 2 0 -19 -32 -10
-37 10 -3 11 -16 23 -29 26 -33 8 -30 21 7 29 30 7 38 2 53 -30 3 -5 10 -2 16
8 6 9 18 17 25 17 22 0 18 21 -5 27 -11 3 -20 11 -20 19 0 7 9 18 20 24 11 6
20 17 20 25 0 12 -14 15 -59 15 -33 0 -63 -4 -66 -10z m1211 -55 c8 -19 23
-41 34 -47 23 -15 27 -48 6 -48 -8 0 -18 5 -21 11 -4 6 -13 8 -21 5 -16 -6
-29 10 -14 19 18 11 11 40 -15 59 -30 23 -32 36 -4 36 13 0 25 -11 35 -35z
m-346 0 c0 -8 -7 -15 -15 -15 -8 0 -15 -6 -15 -14 0 -8 7 -16 15 -20 8 -3 15
-12 15 -21 0 -16 -30 -55 -42 -55 -13 0 -9 28 4 32 8 3 9 11 3 24 -8 18 -9 18
-12 -3 -3 -13 -11 -23 -20 -23 -11 0 -14 7 -9 28 3 15 3 21 0 15 -3 -7 -12
-13 -19 -13 -18 0 -24 21 -13 43 6 11 16 16 24 13 9 -3 12 -1 9 4 -9 14 9 12
24 -2 10 -11 14 -10 22 5 12 21 29 22 29 2z m-574 -31 c-3 -9 -6 -19 -6 -24 0
-25 -54 -19 -64 7 -9 23 2 33 41 33 28 0 34 -3 29 -16z m124 8 c0 -4 -19 -28
-42 -52 -24 -25 -54 -65 -68 -89 -14 -24 -31 -46 -38 -49 -8 -2 -6 8 7 30 11
18 29 51 41 73 28 53 100 115 100 87z m480 -13 c0 -5 -7 -9 -15 -9 -15 0 -20
12 -9 23 8 8 24 -1 24 -14z m260 -5 c0 -31 -23 -28 -28 4 -2 15 2 22 12 22 11
0 16 -9 16 -26z m-1235 -7 c-16 -12 -40 -32 -53 -44 -23 -23 -49 -32 -37 -13
3 6 -1 10 -9 10 -9 0 -16 5 -16 10 0 6 4 10 9 10 6 0 13 -4 16 -10 10 -17 25
-11 25 10 0 11 6 20 14 20 7 0 19 7 26 15 7 8 22 15 34 15 19 -1 18 -3 -9 -23z
m1445 13 c0 -5 -4 -10 -9 -10 -6 0 -13 5 -16 10 -3 6 1 10 9 10 9 0 16 -4 16
-10z m-438 -65 c-6 -14 -16 -25 -22 -25 -13 0 -13 26 1 52 17 31 36 7 21 -27z
m473 35 c3 -5 2 -10 -4 -10 -5 0 -13 5 -16 10 -3 6 -2 10 4 10 5 0 13 -4 16
-10z m-875 -39 c-6 -12 -15 -21 -21 -21 -5 0 -2 15 7 33 10 17 19 27 21 20 2
-7 -1 -21 -7 -32z m558 27 c-6 -18 -28 -21 -28 -4 0 9 7 16 16 16 9 0 14 -5
12 -12z m-628 -2 c0 -3 -4 -8 -10 -11 -5 -3 -10 -1 -10 4 0 6 5 11 10 11 6 0
10 -2 10 -4z m280 -6 c0 -5 -7 -10 -16 -10 -8 0 -12 5 -9 10 3 6 10 10 16 10
5 0 9 -4 9 -10z m-754 -15 c4 -8 12 -15 19 -15 9 0 12 -20 11 -72 -1 -70 -2
-73 -26 -77 -14 -1 -28 -8 -33 -15 -5 -8 -11 -6 -18 7 -8 14 -14 16 -25 6 -10
-8 -14 -8 -14 0 0 6 5 11 10 11 6 0 10 7 10 15 0 8 13 24 30 36 16 12 27 26
24 31 -3 4 0 8 5 8 6 0 11 11 11 25 0 28 0 28 -33 16 -15 -6 -26 -20 -30 -39
-5 -26 -33 -50 -44 -38 -11 11 12 59 33 68 13 6 24 17 24 24 0 11 14 21 33 23
4 1 10 -6 13 -14z m-189 -10 c-6 -17 -37 -18 -37 -1 0 9 8 14 20 13 11 -1 19
-6 17 -12z m441 -2 c-4 -22 -22 -20 -26 1 -2 10 3 16 13 16 10 0 15 -7 13 -17z
m1088 2 c4 -8 12 -15 20 -15 8 0 14 -7 14 -15 0 -8 -7 -15 -15 -15 -8 0 -15 6
-15 14 0 7 -9 16 -20 19 -11 3 -20 10 -20 16 0 17 30 13 36 -4z m191 -9 c26
-22 26 -25 9 -32 -10 -4 -21 -2 -25 4 -3 6 -19 15 -34 21 -15 6 -27 15 -27 21
0 19 49 10 77 -14z m-449 -8 c14 -14 16 -28 2 -28 -5 0 -14 9 -20 20 -12 22
-1 27 18 8z m202 -3 c0 -8 -9 -15 -20 -15 -20 0 -26 11 -13 23 12 13 33 7 33
-8z m-1524 -20 c-5 -19 -2 -25 10 -25 18 0 44 23 44 39 0 6 5 11 10 11 6 0 10
-4 10 -8 0 -12 -90 -102 -101 -102 -5 0 -9 -7 -9 -15 0 -8 -7 -15 -15 -15 -8
0 -15 -7 -15 -16 0 -8 -4 -13 -8 -10 -10 6 -31 -18 -52 -59 -19 -37 -46 -65
-63 -65 -7 0 -18 -5 -25 -12 -9 -9 -12 -9 -12 0 0 7 -7 12 -16 12 -13 0 -15 6
-9 27 5 23 4 25 -9 14 -19 -16 -20 -11 -4 24 6 14 17 25 23 25 7 0 25 16 39
35 15 19 33 35 40 35 8 0 17 7 20 17 6 15 8 14 20 -2 18 -25 45 -13 39 17 -3
17 5 34 29 60 39 44 63 50 54 13z m750 -20 c-7 -29 -26 -34 -26 -7 0 18 20 45
28 37 2 -2 2 -16 -2 -30z m-386 10 c0 -8 -7 -15 -15 -15 -16 0 -20 12 -8 23
11 12 23 8 23 -8z m58 -33 c-2 -8 -8 -17 -14 -19 -13 -4 -27 24 -19 37 9 14
36 -1 33 -18z m210 -2 c-10 -29 -25 -46 -34 -38 -6 7 26 68 36 68 5 0 4 -14
-2 -30z m189 8 c-3 -8 -6 -5 -6 6 -1 11 2 17 5 13 3 -3 4 -12 1 -19z m160 -10
c-3 -8 -6 -5 -6 6 -1 11 2 17 5 13 3 -3 4 -12 1 -19z m389 -15 c-11 -11 -19 6
-11 24 8 17 8 17 12 0 3 -10 2 -21 -1 -24z m424 27 c0 -5 -4 -10 -10 -10 -5 0
-10 5 -10 10 0 6 5 10 10 10 6 0 10 -4 10 -10z m-1665 -30 c0 -8 -9 -16 -20
-18 -11 -2 -28 -14 -37 -25 -15 -19 -18 -20 -18 -4 0 10 7 20 15 23 8 4 15 15
15 26 0 14 6 19 23 16 12 -2 22 -10 22 -18z m1749 5 c4 -10 -1 -15 -14 -15
-11 0 -20 -4 -20 -10 0 -5 -4 -10 -10 -10 -14 0 -13 23 2 38 16 16 35 15 42
-3z m-604 -21 c0 -14 -4 -23 -10 -19 -5 3 -10 15 -10 26 0 10 5 19 10 19 6 0
10 -12 10 -26z m-557 -9 c-3 -8 -11 -15 -19 -15 -12 0 -12 4 -2 19 13 22 30
18 21 -4z m357 -7 c-1 -26 -3 -30 -10 -16 -6 9 -7 23 -4 32 9 25 14 19 14 -16z
m-60 -23 c6 -19 16 -35 21 -35 5 0 9 -16 9 -35 0 -19 -3 -35 -7 -35 -14 1 -61
110 -56 130 7 26 19 17 33 -25z m930 30 c0 -8 -4 -15 -9 -15 -13 0 -22 16 -14
24 11 11 23 6 23 -9z m-1449 -28 c-8 -8 -11 -7 -11 4 0 20 13 34 18 19 3 -7
-1 -17 -7 -23z m-84 1 c-3 -8 -6 -5 -6 6 -1 11 2 17 5 13 3 -3 4 -12 1 -19z
m1330 16 c-3 -3 -12 -4 -19 -1 -8 3 -5 6 6 6 11 1 17 -2 13 -5z m-1414 -20
c-3 -8 -17 -20 -30 -25 -19 -7 -24 -15 -20 -29 6 -22 5 -23 -17 -14 -17 7 -22
34 -6 34 6 0 10 8 10 18 0 25 9 32 41 32 22 0 27 -4 22 -16z m1647 -4 c0 -5
-2 -10 -4 -10 -3 0 -8 5 -11 10 -3 6 -1 10 4 10 6 0 11 -4 11 -10z m-1924 -40
c8 0 14 7 14 15 0 12 10 15 40 13 40 -3 47 -11 31 -37 -8 -12 -12 -12 -24 -2
-10 8 -17 9 -22 1 -3 -5 -16 -10 -28 -10 -13 0 -31 -6 -42 -13 -11 -7 -33 -18
-48 -25 -33 -14 -31 -9 22 56 31 37 36 40 39 23 2 -12 10 -21 18 -21z m1274 9
c0 -5 -4 -9 -10 -9 -5 0 -10 7 -10 16 0 8 5 12 10 9 6 -3 10 -10 10 -16z m463
6 c1 -5 -6 -11 -15 -13 -11 -2 -18 3 -18 13 0 17 30 18 33 0z m-1423 -15 c0
-11 -4 -20 -10 -20 -5 0 -10 9 -10 20 0 11 5 20 10 20 6 0 10 -9 10 -20z m186
-17 c-11 -11 -19 6 -11 24 8 17 8 17 12 0 3 -10 2 -21 -1 -24z m1447 31 c12
-12 -6 -34 -28 -34 -12 0 -28 -7 -35 -15 -15 -18 -30 -19 -30 -2 0 12 27 34
60 49 20 9 25 9 33 2z m-1273 -13 c0 -12 -20 -25 -27 -18 -7 7 6 27 18 27 5 0
9 -4 9 -9z m-508 -74 c-6 -49 -27 -43 -28 9 -2 46 16 77 26 47 4 -10 5 -35 2
-56z m598 49 c0 -16 -18 -31 -27 -22 -8 8 5 36 17 36 5 0 10 -6 10 -14z m-690
-52 c10 -25 4 -54 -10 -54 -5 0 -8 -19 -7 -41 2 -49 -13 -60 -30 -22 -17 35
-16 50 2 57 21 8 19 32 -7 55 -17 17 -19 23 -8 35 16 20 47 5 60 -30z m1979
-10 c3 -15 -1 -14 -23 6 -14 14 -26 29 -26 34 0 16 45 -21 49 -40z m-1819 -23
c0 -56 -1 -59 -29 -64 -24 -5 -29 -12 -35 -46 -3 -23 -7 -44 -9 -48 -1 -5 8
-9 21 -11 12 -2 22 -6 22 -10 0 -22 -22 -82 -30 -82 -6 0 -10 -12 -10 -27 0
-41 -70 -173 -91 -173 -10 0 -23 -8 -28 -17 -8 -15 -10 -12 -7 14 4 37 19 59
47 68 10 4 22 18 25 33 4 15 14 41 22 57 18 36 24 95 11 111 -5 6 -12 32 -15
58 -6 42 -5 48 14 52 11 3 35 24 52 46 25 31 31 46 26 69 -3 16 -1 29 4 29 6
0 10 -26 10 -59z m1080 30 c0 -17 -4 -33 -10 -36 -5 -3 -10 0 -10 7 0 7 -3 23
-6 36 -5 16 -2 22 10 22 11 0 16 -9 16 -29z m613 23 c9 -9 -4 -35 -14 -28 -5
3 -9 12 -9 20 0 14 12 19 23 8z m-2263 -39 c0 -26 -14 -33 -25 -15 -9 14 1 40
15 40 5 0 10 -11 10 -25z m282 -9 c10 -15 -1 -57 -20 -79 -22 -25 -2 -44 26
-26 12 7 24 10 28 6 9 -9 -16 -57 -30 -57 -17 0 -45 -57 -41 -80 5 -26 -11
-70 -25 -70 -5 0 -10 16 -10 35 0 21 -5 35 -12 36 -10 0 -10 2 0 6 6 2 12 11
12 19 0 8 8 14 18 14 16 0 18 7 16 51 -2 29 -6 54 -8 56 -10 10 -44 -9 -49
-27 -7 -26 -27 -26 -27 0 0 11 -7 23 -15 26 -21 9 -19 32 5 39 11 3 20 11 20
16 0 5 9 9 20 9 11 0 20 -5 20 -12 0 -6 -3 -8 -7 -5 -7 8 -33 -11 -33 -24 0
-17 35 -9 47 11 9 13 10 27 4 44 -6 13 -8 26 -5 29 8 7 59 -5 66 -17z m801
-13 c4 -20 2 -43 -2 -52 -7 -12 -12 -7 -25 22 -8 21 -13 44 -10 52 11 27 31
15 37 -22z m1285 0 c31 -30 33 -35 15 -30 -16 3 -23 1 -23 -9 0 -8 -8 -18 -17
-21 -10 -4 -21 -11 -25 -17 -4 -6 -10 -8 -13 -5 -7 8 16 59 27 59 4 0 8 9 8
20 0 11 -4 20 -10 20 -5 0 -10 5 -10 10 0 17 9 12 48 -27z m-2033 17 c3 -5 1
-10 -4 -10 -6 0 -11 5 -11 10 0 6 2 10 4 10 3 0 8 -4 11 -10z m1695 0 c0 -5
-7 -10 -15 -10 -8 0 -15 5 -15 10 0 6 7 10 15 10 8 0 15 -4 15 -10z m137 -12
c-3 -8 -6 -5 -6 6 -1 11 2 17 5 13 3 -3 4 -12 1 -19z m-1217 -20 c0 -21 -3
-29 -10 -22 -5 5 -7 19 -4 32 9 31 14 27 14 -10z m1470 11 c0 -5 -4 -9 -10 -9
-5 0 -10 7 -10 16 0 8 5 12 10 9 6 -3 10 -10 10 -16z m-2450 -29 c0 -31 -17
-32 -22 -1 -3 21 -1 28 9 24 7 -3 13 -13 13 -23z m125 20 c3 -5 1 -10 -4 -10
-6 0 -11 5 -11 10 0 6 2 10 4 10 3 0 8 -4 11 -10z m-40 -21 c4 -11 4 -23 1
-26 -3 -4 -6 2 -6 12 0 17 -1 17 -20 0 -16 -14 -23 -16 -32 -7 -9 9 -7 15 8
27 27 20 42 19 49 -6z m1219 -1 c9 -37 7 -108 -4 -108 -5 0 -10 19 -10 43 0
23 -3 52 -6 65 -4 12 -2 22 4 22 5 0 12 -10 16 -22z m283 -30 c-2 -13 -4 -5
-4 17 -1 22 1 32 4 23 2 -10 2 -28 0 -40z m-740 10 c-3 -8 -6 -5 -6 6 -1 11 2
17 5 13 3 -3 4 -12 1 -19z m340 -25 c-3 -10 -5 -2 -5 17 0 19 2 27 5 18 2 -10
2 -26 0 -35z m269 34 c8 -7 -14 -37 -27 -37 -5 0 -9 11 -9 24 0 23 19 30 36
13z m754 -42 c0 -22 -21 -18 -27 4 -3 11 -12 22 -21 26 -13 5 -14 8 -3 14 16
10 51 -21 51 -44z m35 44 c11 -17 -1 -21 -15 -4 -8 9 -8 15 -2 15 6 0 14 -5
17 -11z m-711 -15 c6 -17 -23 -93 -36 -94 -15 0 -18 21 -7 64 11 46 32 60 43
30z m922 0 c-3 -9 -6 -18 -6 -20 0 -2 -7 -4 -15 -4 -18 0 -19 6 -2 25 16 19
31 19 23 -1z m-2502 -19 c-19 -29 -32 -32 -41 -9 -7 18 12 34 40 34 16 0 16
-2 1 -25z m1965 -24 c12 -36 8 -52 -9 -35 -14 14 -30 71 -22 78 8 9 18 -4 31
-43z m-825 -2 c10 9 13 -6 12 -72 -1 -83 -15 -107 -27 -48 -4 17 -11 37 -16
43 -14 18 -13 88 0 103 9 10 13 8 15 -12 3 -18 7 -22 16 -14z m-408 4 c-10
-10 -19 5 -10 18 6 11 8 11 12 0 2 -7 1 -15 -2 -18z m274 -19 c0 -21 -4 -33
-10 -29 -5 3 -10 22 -10 41 0 21 4 33 10 29 6 -3 10 -22 10 -41z m-940 17 c0
-11 6 -21 13 -24 7 -2 8 -8 3 -13 -5 -5 -11 -4 -13 4 -6 17 -23 15 -23 -3 0
-8 5 -15 10 -15 13 0 13 -47 -1 -56 -7 -4 -9 2 -7 17 3 21 -2 24 -29 27 -18 2
-33 9 -33 15 -1 16 -29 -34 -30 -51 0 -7 5 -10 10 -7 6 3 10 0 11 -7 0 -10 2
-10 6 0 2 6 9 12 15 12 18 0 38 -28 32 -45 -5 -12 -9 -13 -14 -5 -11 18 -32 2
-25 -19 3 -10 1 -29 -4 -42 -9 -24 -10 -23 -16 9 -8 33 -35 45 -35 15 -1 -23
-50 -61 -50 -39 0 21 -41 48 -55 36 -15 -13 4 -80 22 -80 7 0 13 -8 12 -17 0
-11 -3 -13 -6 -5 -8 20 -23 14 -23 -10 0 -13 -7 -31 -14 -41 -12 -16 -14 -16
-20 -1 -12 32 -7 64 12 64 9 0 13 3 7 8 -31 22 -45 106 -15 87 5 -3 10 1 10
10 0 8 7 18 16 22 8 3 20 16 25 29 4 13 14 24 20 24 7 0 8 -7 4 -17 -18 -44
-18 -53 3 -53 26 0 42 27 35 61 -3 15 0 30 6 33 14 9 14 36 1 36 -5 0 -10 -7
-10 -15 0 -8 -4 -15 -10 -15 -13 0 -13 10 3 43 12 27 37 37 37 16 0 -15 70 -2
90 17 20 19 30 18 30 -5z m60 9 c0 -5 -4 -10 -10 -10 -5 0 -10 5 -10 10 0 6 5
10 10 10 6 0 10 -4 10 -10z m80 -12 c-1 -7 -6 -23 -14 -36 -11 -21 -14 -22
-26 -7 -11 13 -10 19 5 35 21 23 35 26 35 8z m2130 -2 c0 -7 7 -19 15 -26 18
-15 20 -40 4 -40 -7 0 -18 8 -25 18 -16 20 -18 62 -4 62 6 0 10 -6 10 -14z
m104 0 c-3 -8 -12 -12 -20 -9 -21 8 -17 23 6 23 13 0 18 -5 14 -14z m-1571
-21 c-7 -21 -13 -19 -13 6 0 11 4 18 10 14 5 -3 7 -12 3 -20z m1647 5 c-11
-21 -36 -26 -59 -11 -12 8 -8 11 15 16 16 4 34 8 39 10 6 2 11 4 13 4 1 1 -2
-8 -8 -19z m80 16 c0 -3 -4 -8 -10 -11 -5 -3 -10 -1 -10 4 0 6 5 11 10 11 6 0
10 -2 10 -4z m-313 -23 c4 -10 12 -22 19 -28 7 -5 16 -23 20 -38 6 -26 5 -28
-12 -17 -19 12 -54 71 -54 90 0 17 20 11 27 -7z m-1501 -51 c-12 -12 -18 8
-10 35 l8 28 4 -28 c2 -16 1 -31 -2 -35z m1789 38 c-3 -5 -11 -10 -16 -10 -6
0 -7 5 -4 10 3 6 11 10 16 10 6 0 7 -4 4 -10z m-335 -42 c0 -25 -17 -22 -31 3
-9 17 -8 23 2 30 15 9 29 -7 29 -33z m390 35 c-1 -14 -30 -47 -36 -41 -3 3 3
16 13 27 19 23 23 25 23 14z m-2233 -19 c3 -8 -1 -22 -9 -30 -13 -13 -16 -13
-28 0 -10 13 -10 19 0 31 16 19 29 19 37 -1z m1433 6 c0 -5 -4 -10 -10 -10 -5
0 -10 5 -10 10 0 6 5 10 10 10 6 0 10 -4 10 -10z m-980 -16 c0 -8 -5 -12 -10
-9 -6 4 -8 11 -5 16 9 14 15 11 15 -7z m-620 -7 c0 -8 -7 -14 -15 -14 -8 0
-15 6 -15 14 0 7 7 13 15 13 8 0 15 -6 15 -13z m1527 -34 c-3 -10 -5 -4 -5 12
0 17 2 24 5 18 2 -7 2 -21 0 -30z m893 15 c0 -16 -3 -19 -11 -11 -6 6 -8 16
-5 22 11 17 16 13 16 -11z m-2180 -19 c0 -10 -6 -19 -14 -19 -9 0 -12 8 -8 25
5 28 22 24 22 -6z m84 16 c-3 -8 -11 -13 -17 -12 -13 2 -15 -38 -4 -63 5 -10
-2 -19 -19 -27 -25 -12 -26 -11 -20 12 3 14 9 37 12 53 6 26 29 52 46 52 4 0
5 -7 2 -15z m-374 -44 c0 -9 -11 -29 -25 -45 -14 -16 -25 -35 -25 -43 0 -21
-16 -15 -35 13 -10 16 -14 35 -11 50 7 28 26 23 26 -7 0 -10 5 -19 10 -19 6 0
10 20 10 43 0 24 3 47 7 50 9 10 43 -23 43 -42z m2380 39 c0 -5 -2 -10 -4 -10
-3 0 -8 5 -11 10 -3 6 -1 10 4 10 6 0 11 -4 11 -10z m-2300 -36 c0 -34 -17
-30 -22 5 -3 21 -1 28 9 24 7 -3 13 -16 13 -29z m830 26 c0 -5 -2 -10 -4 -10
-3 0 -8 5 -11 10 -3 6 -1 10 4 10 6 0 11 -4 11 -10z m272 -91 c-2 -34 -7 -57
-11 -53 -4 5 -5 43 -2 84 2 43 7 65 10 52 3 -12 4 -50 3 -83z m1252 74 c9 -23
-12 -43 -24 -23 -5 8 -10 21 -10 28 0 18 27 15 34 -5z m-419 -3 c3 -5 1 -10
-4 -10 -6 0 -11 5 -11 10 0 6 2 10 4 10 3 0 8 -4 11 -10z m335 -20 c0 -11 -4
-20 -9 -20 -5 0 -11 9 -14 20 -3 13 0 20 9 20 8 0 14 -9 14 -20z m158 2 c2 -7
-3 -12 -12 -12 -9 0 -16 7 -16 16 0 17 22 14 28 -4z m-1562 -50 c-12 -11 -18
7 -10 30 l8 23 4 -23 c2 -13 1 -26 -2 -30z m442 24 c3 -12 -1 -17 -10 -14 -7
3 -15 13 -16 22 -3 12 1 17 10 14 7 -3 15 -13 16 -22z m-1140 -18 c-3 -34 -20
-42 -26 -13 -5 22 5 45 18 45 7 0 10 -14 8 -32z m232 6 c0 -8 -4 -12 -10 -9
-5 3 -10 10 -10 16 0 5 5 9 10 9 6 0 10 -7 10 -16z m770 -18 c-14 -14 -24 0
-16 21 6 15 8 15 16 3 6 -9 5 -19 0 -24z m340 19 c11 -13 10 -14 -4 -9 -9 3
-16 10 -16 15 0 13 6 11 20 -6z m-1547 -1 c-7 -3 -9 -12 -6 -20 3 -8 0 -14 -6
-14 -12 0 -15 23 -4 33 3 4 11 7 17 6 7 0 6 -2 -1 -5z m1934 -27 c7 -5 11 -13
7 -18 -9 -16 -34 10 -33 35 0 14 2 16 6 6 3 -8 12 -19 20 -23z m423 8 c0 -8
-4 -15 -10 -15 -5 0 -10 7 -10 15 0 8 5 15 10 15 6 0 10 -7 10 -15z m-1589
-38 c-6 -6 -11 -46 -11 -89 0 -45 -4 -78 -10 -78 -13 0 -13 134 -1 158 5 9 13
26 17 37 7 19 7 19 11 1 3 -10 0 -23 -6 -29z m-621 13 c0 -17 5 -19 25 -14 30
7 31 4 6 -25 -18 -21 -49 -21 -36 -1 3 4 -2 10 -10 14 -20 7 -20 46 0 46 8 0
15 -9 15 -20z m869 -64 c1 -47 -3 -87 -8 -90 -5 -3 -9 35 -10 84 -1 50 3 90 8
90 5 0 10 -38 10 -84z m1449 61 c2 -10 -3 -17 -12 -17 -10 0 -16 9 -16 21 0
24 23 21 28 -4z m-2898 -12 c0 -16 -6 -25 -15 -25 -15 0 -21 31 -8 43 13 14
23 6 23 -18z m292 0 c3 -13 -3 -42 -13 -64 -17 -38 -22 -71 -20 -117 1 -23 22
-25 60 -5 21 12 23 17 17 65 -7 53 -1 86 15 86 6 0 9 -17 9 -37 -1 -21 2 -48
5 -60 5 -15 3 -23 -4 -23 -6 0 -11 -7 -11 -15 0 -8 -4 -15 -10 -15 -5 0 -10
-7 -10 -15 0 -8 -12 -31 -26 -52 -31 -47 -37 -52 -33 -33 3 19 -21 72 -41 87
-11 9 -17 9 -23 0 -17 -24 6 58 29 103 13 26 24 61 24 77 0 47 24 61 32 18z
m116 13 c20 -20 14 -38 -13 -38 -18 0 -25 5 -25 18 0 32 17 41 38 20z m41 -63
c-13 -25 -27 -45 -31 -45 -12 0 -19 18 -9 25 6 3 8 12 5 19 -5 14 45 61 54 51
3 -2 -6 -25 -19 -50z m411 45 c0 -5 -2 -10 -4 -10 -3 0 -8 5 -11 10 -3 6 -1
10 4 10 6 0 11 -4 11 -10z m1185 -1 c12 -19 -5 -23 -22 -6 -16 16 -16 17 -1
17 9 0 20 -5 23 -11z m585 -27 c0 -15 -2 -15 -10 -2 -13 20 -13 33 0 25 6 -3
10 -14 10 -23z m-401 -18 c3 -16 1 -17 -13 -5 -19 16 -21 34 -3 29 6 -3 14
-13 16 -24z m337 -1 c-10 -10 -19 5 -10 18 6 11 8 11 12 0 2 -7 1 -15 -2 -18z
m-1252 -28 c-11 -28 -18 -35 -26 -27 -13 13 9 65 24 56 4 -3 8 0 8 7 0 7 2 10
5 7 3 -3 -2 -22 -11 -43z m-1344 28 c0 -5 -7 -17 -15 -27 -8 -11 -15 -28 -15
-39 0 -10 -4 -15 -10 -12 -13 8 -13 45 -1 45 5 0 13 9 16 20 6 19 25 29 25 13z
m1604 -25 c4 -17 2 -28 -4 -28 -5 0 -10 14 -10 32 0 36 4 35 14 -4z m-1424
-46 c0 -18 -30 -11 -43 9 -6 9 -7 25 -3 35 7 18 9 17 26 -6 11 -14 20 -31 20
-38z m2294 19 c-6 -6 -24 19 -24 34 1 6 7 1 15 -9 8 -11 12 -22 9 -25z m100
24 c-6 -16 -24 -21 -24 -7 0 11 11 22 21 22 5 0 6 -7 3 -15z m423 -7 c-3 -8
-6 -5 -6 6 -1 11 2 17 5 13 3 -3 4 -12 1 -19z m-2437 -1 c0 -7 9 -21 21 -30
16 -14 18 -21 9 -32 -13 -16 -30 -11 -30 7 0 6 -7 19 -16 29 -9 10 -13 23 -9
28 9 15 25 14 25 -2z m420 -2 c0 -8 -2 -15 -4 -15 -2 0 -6 7 -10 15 -3 8 -1
15 4 15 6 0 10 -7 10 -15z m1310 0 c0 -8 -7 -15 -15 -15 -8 0 -15 7 -15 15 0
8 7 15 15 15 8 0 15 -7 15 -15z m-1950 -55 c0 -22 -4 -40 -10 -40 -5 0 -10 18
-10 40 0 22 5 40 10 40 6 0 10 -18 10 -40z m471 -3 c-13 -13 -15 1 -4 30 7 17
8 17 11 -1 2 -10 -1 -23 -7 -29z m939 34 c0 -6 -5 -13 -11 -17 -6 -3 -8 -15
-6 -26 4 -16 3 -17 -9 -7 -17 14 -18 31 -2 47 14 14 28 16 28 3z m-762 -42
c-18 -31 -48 -65 -48 -53 1 26 14 54 26 54 8 0 17 7 21 15 3 9 7 14 10 11 2
-2 -2 -14 -9 -27z m-1038 5 c0 -9 -5 -14 -12 -12 -18 6 -21 28 -4 28 9 0 16
-7 16 -16z m100 -4 c0 -23 -22 -35 -45 -26 -13 4 -14 10 -5 26 14 27 50 27 50
0z m470 5 c7 -8 19 -15 26 -15 8 0 14 -2 14 -4 0 -2 3 -11 6 -20 4 -11 1 -16
-10 -16 -9 0 -16 4 -16 8 0 4 -14 16 -30 26 -17 9 -28 22 -25 27 9 13 21 11
35 -6z m1796 -12 c-10 -10 -19 5 -10 18 6 11 8 11 12 0 2 -7 1 -15 -2 -18z
m302 9 c2 -7 -2 -10 -12 -6 -9 3 -16 11 -16 16 0 13 23 5 28 -10z m412 8 c0
-5 -5 -10 -11 -10 -5 0 -7 5 -4 10 3 6 8 10 11 10 2 0 4 -4 4 -10z m-1705 -9
c3 -5 1 -12 -5 -16 -5 -3 -10 1 -10 9 0 18 6 21 15 7z m898 -24 c-3 -5 -10 -4
-15 1 -6 6 -7 16 -3 22 6 9 9 9 16 -1 4 -7 5 -17 2 -22z m-169 7 c7 -18 0 -34
-15 -34 -5 0 -9 11 -9 25 0 28 15 34 24 9z m674 4 c-7 -19 -38 -22 -38 -4 0
10 9 16 21 16 12 0 19 -5 17 -12z m-2038 -16 c0 -9 -9 -23 -20 -30 -17 -10
-20 -10 -20 3 0 17 20 44 33 45 4 0 7 -8 7 -18z m-560 -13 c0 12 4 19 10 16
15 -9 12 -17 -18 -52 -30 -36 -42 -41 -42 -18 0 8 -6 24 -12 35 -11 17 -10 22
2 30 10 6 21 3 37 -12 l23 -21 0 22z m1240 -11 c-1 -28 -2 -30 -11 -15 -6 10
-8 25 -5 33 9 24 16 16 16 -18z m-1383 16 c-3 -3 -12 -4 -19 -1 -8 3 -5 6 6 6
11 1 17 -2 13 -5z m474 -47 c-8 -8 -11 -7 -11 4 0 20 13 34 18 19 3 -7 -1 -17
-7 -23z m319 3 c-13 -24 -13 -43 0 -35 18 11 11 -23 -15 -71 -14 -26 -25 -62
-25 -80 0 -40 -9 -47 -32 -22 -10 10 -14 18 -9 18 5 0 12 14 16 30 4 17 11 30
16 30 5 0 11 11 15 25 3 14 10 25 15 25 14 0 10 26 -5 40 -15 11 -12 33 7 57
14 19 29 5 17 -17z m-540 -42 c0 -20 -4 -40 -10 -43 -5 -3 -10 -28 -10 -56 0
-38 -3 -49 -16 -49 -13 0 -15 8 -11 43 3 23 8 53 11 67 3 14 8 43 11 64 8 48
25 31 25 -26z m625 52 c3 -5 1 -10 -4 -10 -6 0 -11 5 -11 10 0 6 2 10 4 10 3
0 8 -4 11 -10z m1280 -13 c11 -8 14 -16 8 -20 -6 -4 -18 2 -28 13 -21 23 -8
27 20 7z m-2107 -19 c-4 -31 -58 -40 -58 -9 0 20 12 29 43 30 14 1 18 -5 15
-21z m602 -13 c0 -23 -31 -51 -43 -39 -11 12 17 64 34 64 5 0 9 -11 9 -25z
m1890 5 c0 -11 -4 -20 -10 -20 -5 0 -10 9 -10 20 0 11 5 20 10 20 6 0 10 -9
10 -20z m-2093 -20 c2 -33 -20 -51 -39 -32 -7 7 -4 18 7 36 22 34 30 33 32 -4z
m2690 8 c-3 -8 -6 -5 -6 6 -1 11 2 17 5 13 3 -3 4 -12 1 -19z m-3197 -5 c29
-25 25 -36 -10 -28 -22 5 -30 3 -30 -7 -1 -9 -4 -7 -10 4 -12 20 -3 48 16 48
8 0 23 -8 34 -17z m560 -67 c-17 -25 -36 -44 -41 -41 -15 10 -10 34 11 45 10
6 17 17 14 24 -3 8 5 24 18 36 22 21 23 21 26 2 2 -11 -11 -40 -28 -66z m1112
-5 c3 -66 2 -69 -14 -54 -19 17 -22 41 -12 92 11 52 22 35 26 -38z m-1502 49
c0 -5 -4 -10 -10 -10 -5 0 -10 -12 -10 -27 0 -26 -20 -71 -20 -47 0 6 -3 26
-6 43 -5 24 -3 31 10 31 9 0 16 5 16 10 0 6 5 10 10 10 6 0 10 -4 10 -10z
m1357 -27 c-3 -10 -5 -4 -5 12 0 17 2 24 5 18 2 -7 2 -21 0 -30z m693 27 c0
-5 -4 -10 -10 -10 -5 0 -10 5 -10 10 0 6 5 10 10 10 6 0 10 -4 10 -10z m420 0
c0 -5 -7 -10 -15 -10 -8 0 -15 5 -15 10 0 6 7 10 15 10 8 0 15 -4 15 -10z
m-1860 -16 c0 -8 -5 -12 -10 -9 -6 4 -8 11 -5 16 9 14 15 11 15 -7z m-730 -4
c0 -5 -5 -10 -11 -10 -5 0 -7 5 -4 10 3 6 8 10 11 10 2 0 4 -4 4 -10z m320 2
c0 -5 -7 -17 -15 -28 -14 -19 -14 -19 -15 2 0 11 3 24 7 27 9 10 23 9 23 -1z
m917 -14 c-3 -8 -6 -5 -6 6 -1 11 2 17 5 13 3 -3 4 -12 1 -19z m1400 0 c-3 -8
-6 -5 -6 6 -1 11 2 17 5 13 3 -3 4 -12 1 -19z m-1537 -72 c-7 -7 -10 6 -9 40
l1 49 9 -39 c6 -26 6 -43 -1 -50z m717 62 c-3 -8 -6 -5 -6 6 -1 11 2 17 5 13
3 -3 4 -12 1 -19z m478 2 c-3 -5 -11 -10 -16 -10 -6 0 -7 5 -4 10 3 6 11 10
16 10 6 0 7 -4 4 -10z m-2401 -58 c-13 -12 -27 -34 -30 -47 -3 -14 -11 -25
-16 -25 -11 0 -12 -4 27 73 23 47 31 55 36 40 5 -12 -1 -25 -17 -41z m1446 12
c0 -32 -4 -44 -12 -42 -14 5 -17 44 -5 71 12 28 17 20 17 -29z m157 14 c-3 -7
-5 -2 -5 12 0 14 2 19 5 13 2 -7 2 -19 0 -25z m-1087 -18 c0 -20 -5 -30 -15
-30 -15 0 -21 40 -8 53 14 15 23 6 23 -23z m280 10 c0 -11 -7 -20 -15 -20 -8
0 -15 -9 -15 -19 0 -11 -4 -22 -9 -25 -15 -9 -21 22 -8 36 7 7 16 21 20 31 9
23 27 22 27 -3z m1050 6 c0 -8 -4 -18 -10 -21 -5 -3 -10 -16 -10 -28 -1 -19
-2 -20 -10 -5 -7 11 -7 25 0 42 10 28 30 35 30 12z m457 -12 c-9 -9 -28 6 -21
18 4 6 10 6 17 -1 6 -6 8 -13 4 -17z m-2207 -24 c0 -13 -5 -18 -15 -14 -16 7
-19 17 -8 27 12 13 23 7 23 -13z m1994 4 c3 -9 6 -30 6 -49 0 -50 11 -95 24
-95 7 0 10 25 8 80 -4 83 0 90 39 70 11 -6 19 -21 19 -36 0 -16 5 -24 12 -22
11 4 34 -23 90 -110 10 -15 21 -34 25 -42 3 -8 12 -18 19 -23 7 -4 11 -14 8
-22 -3 -8 1 -27 9 -42 43 -81 66 -136 62 -143 -3 -5 4 -26 15 -47 11 -21 20
-48 20 -61 0 -13 4 -32 10 -42 5 -10 14 -43 18 -72 l9 -53 8 39 c5 25 3 63 -5
102 -12 65 -9 84 16 84 20 0 72 -76 80 -116 3 -19 10 -37 15 -40 5 -3 9 -19 9
-36 0 -17 6 -39 14 -47 7 -9 16 -39 19 -68 5 -41 3 -53 -10 -57 -8 -4 -22 -1
-29 5 -7 6 -26 8 -42 4 -22 -4 -31 -2 -35 9 -8 20 -31 21 -46 2 -10 -12 -38
-14 -139 -10 -129 5 -278 -10 -304 -30 -28 -22 -58 -70 -58 -92 0 -13 -9 -41
-20 -61 -11 -21 -20 -52 -20 -71 0 -29 2 -32 25 -26 22 5 27 0 50 -49 15 -30
25 -63 23 -72 -4 -22 -5 -21 172 -29 79 -4 151 -11 161 -16 26 -14 65 -12 78
4 6 7 25 16 41 20 22 4 30 11 30 27 0 23 3 22 -92 3 -27 -6 -27 -6 -13 23 8
15 23 37 33 49 23 24 48 76 59 123 11 44 30 56 66 42 33 -13 34 -33 7 -95 -10
-25 -15 -48 -10 -51 11 -7 40 22 40 40 0 7 7 15 15 19 8 3 15 15 15 27 0 12 5
19 12 17 19 -7 20 -228 2 -235 -8 -3 -14 -14 -14 -25 0 -11 -6 -32 -14 -46
-37 -73 -40 -81 -26 -97 11 -13 7 -26 -19 -78 -46 -88 -56 -105 -74 -125 -10
-10 -17 -23 -17 -29 0 -16 -89 -103 -105 -103 -8 0 -15 -7 -15 -15 0 -8 -7
-15 -15 -15 -8 0 -15 -4 -15 -10 0 -13 27 -13 35 0 3 5 19 10 35 10 20 0 31 6
35 20 6 18 61 80 71 80 9 0 4 -49 -6 -55 -5 -3 -10 -14 -10 -23 0 -9 -14 -25
-30 -34 -17 -9 -30 -24 -30 -33 0 -8 -18 -35 -41 -60 -42 -46 -163 -147 -189
-158 -8 -4 -34 -22 -57 -39 -22 -18 -67 -53 -100 -77 -32 -24 -75 -56 -95 -72
-20 -16 -41 -29 -47 -29 -6 0 -32 -12 -58 -27 -146 -81 -209 -102 -261 -84
-68 23 -117 44 -147 66 -16 11 -50 29 -75 40 -25 11 -63 34 -84 52 -22 18 -45
33 -51 33 -6 0 -22 11 -35 25 -13 14 -45 39 -72 56 -26 17 -48 34 -48 38 0 4
-15 15 -32 26 -18 10 -46 31 -62 47 -17 15 -35 28 -41 28 -16 0 -145 136 -145
154 0 8 -6 19 -13 23 -20 12 -52 71 -44 80 9 9 59 -20 92 -53 14 -14 30 -22
36 -18 7 4 -7 25 -35 53 -25 26 -46 51 -46 56 0 6 -11 22 -24 36 -13 14 -38
52 -56 85 -18 32 -37 61 -41 62 -11 5 -12 52 -1 52 4 0 13 -5 20 -12 24 -24
23 2 -1 34 -35 48 -57 97 -57 128 0 15 -6 40 -14 55 -9 16 -15 56 -15 92 0 36
-4 70 -10 76 -6 8 -5 18 3 30 18 23 36 22 36 -3 0 -11 7 -23 15 -26 8 -4 15
-14 15 -23 1 -16 33 -61 44 -61 13 0 5 31 -19 77 -33 60 -30 85 12 97 38 10
63 -4 63 -38 0 -11 7 -34 15 -50 8 -15 15 -34 15 -42 0 -7 6 -17 14 -21 19
-11 60 -82 52 -90 -4 -4 -23 -1 -42 6 -29 11 -41 11 -59 1 -28 -15 -22 -44 6
-35 11 4 31 -2 48 -14 31 -23 61 -27 77 -11 5 5 88 12 184 15 96 3 176 8 178
10 2 1 -3 12 -10 24 -10 17 -10 25 0 41 6 11 12 27 12 35 0 8 4 15 9 15 5 0
13 9 16 20 10 30 25 24 25 -9 0 -47 16 -45 57 6 21 25 52 61 68 78 44 46 95
112 95 123 0 5 9 20 20 33 66 79 80 97 80 103 0 3 16 30 35 61 20 30 39 63 42
73 4 9 22 33 40 52 18 19 36 46 39 60 3 14 9 34 13 45 39 98 57 119 85 96 18
-15 26 -73 13 -90 -6 -7 -14 -36 -18 -65 -8 -54 -32 -147 -48 -181 -5 -11 -17
-45 -26 -75 -10 -30 -24 -67 -31 -82 -8 -14 -14 -33 -14 -42 0 -9 -4 -16 -10
-16 -5 0 -10 -7 -10 -16 0 -13 5 -11 25 7 13 13 25 33 25 44 0 12 4 25 9 30 5
6 24 46 41 90 18 44 36 88 41 97 5 10 9 29 9 43 0 14 4 33 9 43 9 16 20 40 65
144 9 20 16 41 16 47 0 17 45 24 105 16 43 -5 55 -11 61 -28 l7 -22 8 23 c6
16 16 22 39 22 40 0 38 13 -2 25 l-33 10 -3 100 c-4 138 -22 149 -22 13 0 -65
-4 -109 -11 -113 -15 -10 -93 3 -113 18 -15 11 -15 17 -5 42 15 38 39 178 39
231 0 69 11 104 30 104 10 0 21 -7 24 -16z m-1865 -51 c1 -7 -3 -13 -9 -13 -5
0 -10 17 -9 38 1 33 2 34 9 12 4 -14 8 -31 9 -37z m137 -39 c-27 -54 -42 -44
-25 18 15 58 30 77 41 49 5 -14 0 -36 -16 -67z m1242 -16 l-4 -33 -12 29 c-10
23 -10 36 0 64 l13 36 3 -32 c2 -18 2 -47 0 -64z m84 60 c-9 -9 -12 -7 -12 12
0 19 3 21 12 12 9 -9 9 -15 0 -24z m-1382 -3 c0 -14 -4 -25 -10 -25 -11 0 -14
33 -3 43 11 11 13 8 13 -18z m-262 -7 c2 -9 -6 -18 -19 -21 -13 -4 -18 -10
-13 -18 4 -7 3 -10 -3 -6 -6 4 -14 -4 -17 -18 -4 -14 -13 -25 -21 -25 -9 0
-15 -10 -15 -26 0 -14 -4 -23 -9 -19 -16 9 17 89 42 100 12 6 23 20 25 33 4
25 25 25 30 0z m932 2 c0 -11 -4 -20 -10 -20 -5 0 -10 9 -10 20 0 11 5 20 10
20 6 0 10 -9 10 -20z m480 -37 c0 -18 -4 -33 -9 -33 -10 0 -21 59 -13 78 8 22
22 -7 22 -45z m-980 38 c0 -6 -4 -13 -10 -16 -5 -3 -10 1 -10 9 0 9 5 16 10
16 6 0 10 -4 10 -9z m296 -14 c11 4 24 -27 24 -57 0 -8 -9 -26 -20 -40 l-19
-25 5 30 c2 17 7 35 9 42 6 16 -15 28 -42 24 -25 -3 -31 17 -11 37 9 9 15 9
27 -2 9 -7 21 -12 27 -9z m2038 8 c6 -17 4 -18 -18 -9 -20 8 -21 24 -2 24 8 0
16 -7 20 -15z m-2188 -22 c-10 -10 -19 5 -10 18 6 11 8 11 12 0 2 -7 1 -15 -2
-18z m-430 -20 c-3 -21 -6 -49 -7 -63 -1 -14 -5 -2 -10 25 -9 54 -6 75 12 75
8 0 10 -12 5 -37z m2364 16 c0 -5 -4 -9 -10 -9 -5 0 -10 7 -10 16 0 8 5 12 10
9 6 -3 10 -10 10 -16z m180 11 c0 -5 -4 -10 -10 -10 -5 0 -10 5 -10 10 0 6 5
10 10 10 6 0 10 -4 10 -10z m-240 -35 c0 -3 -9 -5 -20 -5 -11 0 -20 7 -20 15
0 13 4 14 20 5 11 -6 20 -13 20 -15z m-1386 -56 c3 -34 10 -67 15 -73 16 -21
19 -116 4 -132 -16 -16 -39 -18 -47 -5 -8 12 6 271 14 271 4 0 10 -28 14 -61z
m-1068 39 c4 -6 0 -16 -9 -23 -10 -7 -17 -17 -17 -24 0 -6 -4 -11 -10 -11 -5
0 -10 9 -10 20 0 11 5 20 10 20 6 0 10 7 10 15 0 18 16 20 26 3z m396 -20
c-15 -15 -26 -4 -18 18 5 13 9 15 18 6 9 -9 9 -15 0 -24z m255 6 c-3 -4 -14
-3 -24 0 -15 6 -15 8 -3 16 16 10 39 -4 27 -16z m193 10 c0 -9 -5 -14 -12 -12
-18 6 -21 28 -4 28 9 0 16 -7 16 -16z m918 -66 c-4 -9 -8 -33 -8 -53 0 -24 -4
-34 -11 -29 -7 4 -8 20 -5 43 4 20 7 47 7 61 0 43 11 58 19 25 3 -16 3 -38 -2
-47z m1042 68 c0 -3 -4 -8 -10 -11 -5 -3 -10 -1 -10 4 0 6 5 11 10 11 6 0 10
-2 10 -4z m-1403 -28 c-3 -8 -6 -5 -6 6 -1 11 2 17 5 13 3 -3 4 -12 1 -19z
m1377 -7 c3 -5 -1 -11 -9 -15 -9 -3 -15 0 -15 9 0 16 16 20 24 6z m-2156 -24
c3 -12 -3 -17 -21 -17 -14 0 -30 -7 -37 -15 -26 -32 -30 -13 -4 20 28 37 56
43 62 12z m632 -24 c0 -7 -4 -13 -10 -13 -5 0 -10 12 -10 28 0 21 2 24 10 12
5 -8 10 -21 10 -27z m290 -4 c0 -10 -4 -20 -9 -23 -10 -7 -21 17 -21 46 0 17
3 18 15 8 8 -7 15 -21 15 -31z m339 12 c10 -7 11 -16 3 -42 -6 -19 -13 -51
-17 -71 -5 -36 -34 -65 -49 -51 -9 10 -7 61 3 67 5 4 12 25 16 49 10 60 16 66
44 48z m-1935 -27 c4 -10 13 -13 26 -9 15 5 20 2 20 -12 0 -10 -5 -25 -10 -33
-8 -13 -10 -12 -10 3 0 9 -4 17 -9 17 -5 0 -12 -8 -16 -17 -7 -16 -9 -15 -15
7 -11 35 -11 60 -1 60 5 0 12 -7 15 -16z m266 -24 c0 -10 -4 -22 -10 -25 -6
-4 -10 7 -10 25 0 18 4 29 10 25 6 -3 10 -15 10 -25z m50 5 c0 -14 -4 -25 -10
-25 -11 0 -14 33 -3 43 11 11 13 8 13 -18z m590 -2 c0 -16 -7 -37 -15 -47 -8
-11 -15 -35 -15 -53 0 -19 -7 -50 -15 -70 -8 -19 -15 -48 -15 -64 0 -15 -4
-31 -10 -34 -12 -7 -14 -55 -2 -55 5 0 18 21 29 48 23 51 66 98 82 88 6 -4 10
-71 10 -168 1 -174 17 -242 19 -81 1 53 6 101 11 106 5 5 7 33 4 63 -4 40 -2
60 11 79 15 22 15 27 2 48 -13 20 -14 26 -1 50 7 14 15 37 17 49 2 13 8 21 13
18 11 -6 14 -97 3 -121 -4 -9 1 -28 13 -45 10 -16 19 -45 19 -64 0 -19 4 -41
9 -48 10 -17 21 31 21 95 0 42 2 45 23 39 12 -3 29 -6 37 -6 26 0 52 -111 29
-125 -7 -5 -5 -13 6 -25 11 -13 16 -38 17 -89 0 -39 4 -71 9 -71 5 0 9 -8 9
-17 0 -15 2 -15 9 -4 5 8 7 19 5 26 -3 6 2 18 11 25 12 10 18 11 28 1 17 -17
14 -178 -3 -194 -8 -7 -14 -8 -16 -2 -12 29 -26 39 -61 40 -21 1 -67 7 -103
12 -67 11 -85 11 -280 -2 -194 -13 -175 -18 -178 39 -2 28 1 59 7 70 5 12 17
48 27 81 22 77 50 138 74 160 10 9 16 23 13 30 -2 8 6 33 18 57 46 85 111 188
120 188 5 0 9 -12 9 -27z m-300 -8 c0 -8 6 -15 13 -15 11 0 14 -20 8 -49 -1
-2 -15 10 -32 27 -31 30 -32 52 -3 52 8 0 14 -7 14 -15z m206 -22 c-10 -10
-19 5 -10 18 6 11 8 11 12 0 2 -7 1 -15 -2 -18z m-77 -24 c-13 -26 -23 -18
-14 10 3 12 11 19 16 16 5 -4 5 -14 -2 -26z m942 -2 c-9 -9 -14 -8 -21 3 -16
24 -11 31 11 19 16 -8 18 -14 10 -22z m-1127 14 c9 -15 -12 -61 -28 -61 -19 0
-28 28 -16 51 11 20 35 25 44 10z m-643 -92 l-9 -34 -1 31 c-1 17 2 47 6 65
l8 34 3 -31 c2 -18 -1 -47 -7 -65z m1869 49 c0 -23 -3 -29 -9 -19 -8 12 -4 51
5 51 2 0 4 -15 4 -32z m-832 3 c8 -5 12 -22 10 -46 -3 -41 -14 -51 -37 -36
-12 8 -12 12 -2 25 7 9 11 27 9 41 -6 26 -1 30 20 16z m752 -25 c0 -8 -4 -18
-10 -21 -5 -3 -10 3 -10 14 0 12 5 21 10 21 6 0 10 -6 10 -14z m-980 -16 c0
-5 -4 -10 -10 -10 -5 0 -10 5 -10 10 0 6 5 10 10 10 6 0 10 -4 10 -10z m-366
-43 c-3 -9 -10 -17 -15 -17 -11 0 -12 34 -2 44 11 11 24 -9 17 -27z m1226 12
c0 -5 -4 -9 -10 -9 -5 0 -10 7 -10 16 0 8 5 12 10 9 6 -3 10 -10 10 -16z m171
-6 c-5 -10 -13 -27 -17 -38 -6 -17 -8 -18 -11 -3 -2 9 3 28 13 43 19 29 31 28
15 -2z m765 10 c3 -10 10 -26 16 -37 10 -19 -3 -36 -30 -36 -14 0 -32 40 -32
71 0 24 38 26 46 2z m-1026 -19 c0 -42 -21 -168 -31 -186 -12 -23 -12 -75 1
-83 6 -4 10 12 10 39 0 46 14 62 24 29 8 -29 2 -81 -12 -95 -6 -6 -12 -27 -12
-44 0 -18 -4 -36 -10 -39 -5 -3 -10 -26 -10 -50 0 -29 -5 -45 -15 -49 -9 -3
-15 -18 -15 -35 0 -17 -6 -34 -13 -38 -7 -4 -21 -27 -31 -50 -20 -46 -25 -50
-44 -31 -17 17 -15 62 4 106 8 20 18 71 21 112 3 41 9 80 13 85 4 6 11 36 14
67 4 32 12 60 17 63 5 4 9 21 9 39 0 19 7 39 15 46 8 7 15 23 15 36 0 12 7 29
15 38 8 8 15 26 15 40 0 14 5 26 10 26 6 0 10 -12 10 -26z m137 11 c0 -8 -4
-12 -9 -9 -4 3 -8 9 -8 15 0 5 4 9 8 9 5 0 9 -7 9 -15z m-1037 -30 c0 -26 -14
-33 -25 -15 -9 14 1 40 15 40 5 0 10 -11 10 -25z m-683 -87 c-2 -18 -4 -4 -4
32 0 36 2 50 4 33 2 -18 2 -48 0 -65z m1689 36 c-4 -14 -11 -22 -16 -19 -9 5
-8 13 6 53 9 25 17 -3 10 -34z m-1569 14 c-3 -8 -6 -5 -6 6 -1 11 2 17 5 13 3
-3 4 -12 1 -19z m1383 -2 c0 -8 -4 -18 -10 -21 -5 -3 -10 3 -10 14 0 12 5 21
10 21 6 0 10 -6 10 -14z m-875 -6 c3 -5 2 -10 -4 -10 -5 0 -13 5 -16 10 -3 6
-2 10 4 10 5 0 13 -4 16 -10z m732 -12 c-3 -8 -6 -5 -6 6 -1 11 2 17 5 13 3
-3 4 -12 1 -19z m-937 -39 c0 -10 -4 -19 -10 -19 -5 0 -10 12 -10 26 0 14 4
23 10 19 6 -3 10 -15 10 -26z m230 -4 c0 -14 -4 -25 -9 -25 -12 0 -23 29 -15
41 10 18 24 9 24 -16z m1060 -41 c0 -13 -4 -24 -10 -24 -5 0 -10 14 -10 31 0
17 4 28 10 24 6 -3 10 -17 10 -31z m-1205 17 c3 -5 1 -12 -5 -16 -5 -3 -10 1
-10 9 0 18 6 21 15 7z m1161 -17 c-4 -9 -9 -15 -11 -12 -3 3 -3 13 1 22 4 9 9
15 11 12 3 -3 3 -13 -1 -22z m-260 -41 c-11 -93 -38 -102 -39 -13 -1 35 4 54
14 61 27 17 32 9 25 -48z m-1279 -20 c-17 -18 -22 -8 -11 22 5 12 10 13 17 6
8 -8 6 -16 -6 -28z m453 5 c0 -5 -4 -8 -10 -8 -5 0 -10 10 -10 23 0 18 2 19
10 7 5 -8 10 -18 10 -22z m90 -28 c0 -5 -5 -10 -11 -10 -5 0 -7 5 -4 10 3 6 8
10 11 10 2 0 4 -4 4 -10z m-550 -50 c0 -5 -5 -10 -11 -10 -5 0 -7 5 -4 10 3 6
8 10 11 10 2 0 4 -4 4 -10z m610 -10 c0 -11 -6 -20 -14 -20 -9 0 -12 7 -9 20
3 11 9 20 14 20 5 0 9 -9 9 -20z m901 -3 c-13 -13 -26 -3 -16 12 3 6 11 8 17
5 6 -4 6 -10 -1 -17z m-1001 9 c0 -3 -4 -8 -10 -11 -5 -3 -10 -1 -10 4 0 6 5
11 10 11 6 0 10 -2 10 -4z m-616 -50 c-6 -16 -8 -17 -16 -2 -11 19 0 42 13 29
6 -6 7 -18 3 -27z m635 -18 c-2 -41 -14 -74 -23 -60 -4 7 -12 10 -17 7 -5 -4
-9 -2 -9 3 0 6 7 13 16 16 11 4 15 14 12 31 -4 17 -1 25 8 25 8 0 14 -10 13
-22z m981 12 c0 -5 -4 -10 -10 -10 -5 0 -10 5 -10 10 0 6 5 10 10 10 6 0 10
-4 10 -10z m-1481 -56 c-11 -25 -13 -26 -17 -9 -2 10 1 21 7 23 6 2 11 11 12
20 0 10 3 12 5 6 3 -6 -1 -24 -7 -40z m1449 4 c-6 -18 -28 -21 -28 -4 0 9 7
16 16 16 9 0 14 -5 12 -12z m-1558 -29 c0 -11 -4 -17 -10 -14 -5 3 -10 13 -10
21 0 8 5 14 10 14 6 0 10 -9 10 -21z m618 -14 c-12 -12 -78 -17 -78 -7 0 6 17
12 38 14 39 3 49 1 40 -7z m2182 -5 c0 -5 -5 -10 -11 -10 -5 0 -7 5 -4 10 3 6
8 10 11 10 2 0 4 -4 4 -10z m-2683 -62 c-3 -8 -6 -5 -6 6 -1 11 2 17 5 13 3
-3 4 -12 1 -19z m240 -60 c21 -47 53 -134 53 -146 0 -7 7 -15 15 -18 10 -4 12
-15 8 -35 -3 -16 0 -41 6 -56 17 -41 31 -245 18 -261 -12 -15 -47 22 -102 110
-53 84 -77 168 -76 262 2 122 49 207 78 144z m2719 -5 c16 -23 19 -47 19 -133
0 -127 -17 -189 -80 -285 -65 -99 -65 -98 -84 -81 -14 13 -16 27 -10 93 11
112 28 204 45 236 8 16 14 36 14 46 0 9 7 26 15 37 8 10 15 30 15 44 0 26 25
70 39 70 5 0 17 -12 27 -27z m-1880 -30 c4 -16 9 -31 11 -36 6 -10 52 25 53
40 0 7 11 1 25 -13 21 -21 24 -31 19 -65 -8 -48 -50 -94 -95 -103 -17 -3 -78
-6 -135 -6 l-104 0 -39 38 c-41 39 -70 95 -63 125 5 25 20 21 52 -13 31 -33
40 -37 40 -17 0 6 4 18 9 26 8 12 12 12 25 2 9 -8 16 -20 16 -29 0 -22 40 -62
61 -62 26 0 79 66 79 100 0 25 9 37 32 39 4 1 11 -11 14 -26z m1040 -18 c-4
-17 1 -31 18 -49 42 -47 126 -26 126 31 0 34 29 29 42 -8 11 -32 21 -30 42 13
6 12 20 23 31 23 42 0 9 -100 -48 -145 -26 -21 -44 -26 -110 -29 -43 -2 -104
0 -135 4 -47 6 -61 13 -89 43 -39 42 -45 98 -15 125 17 15 19 15 35 -3 20 -24
46 -26 52 -5 3 8 7 22 10 30 4 13 9 14 26 5 15 -9 19 -18 15 -35z m-1699 -30
c8 -22 -6 -33 -17 -15 -13 20 -12 30 0 30 6 0 13 -7 17 -15z m73 -16 c0 -5 -4
-9 -10 -9 -5 0 -10 7 -10 16 0 8 5 12 10 9 6 -3 10 -10 10 -16z m-10 -159 c0
-5 -7 -10 -15 -10 -8 0 -15 5 -15 10 0 6 7 10 15 10 8 0 15 -4 15 -10z m-310
-207 c0 -22 -2 -25 -10 -13 -13 20 -13 40 0 40 6 0 10 -12 10 -27z m240 -228
c0 -8 -4 -17 -10 -20 -6 -4 -10 5 -10 20 0 15 4 24 10 20 6 -3 10 -12 10 -20z
m-350 -125 c0 -5 -5 -10 -11 -10 -5 0 -7 5 -4 10 3 6 8 10 11 10 2 0 4 -4 4
-10z m37 -706 c-1 -2 -8 0 -14 4 -6 4 -8 22 -5 42 l6 35 8 -39 c5 -21 7 -40 5
-42z"/>
<path d="M1482 4868 c-7 -7 -12 -19 -12 -27 1 -14 3 -13 14 2 7 9 19 17 25 17
7 0 9 5 6 10 -8 13 -18 13 -33 -2z"/>
<path d="M1356 4775 c-9 -14 -23 -25 -30 -25 -8 0 -16 -8 -18 -17 -6 -24 12
-63 28 -63 17 0 36 34 28 53 -3 8 2 17 10 20 17 7 22 42 7 51 -5 3 -16 -5 -25
-19z"/>
<path d="M2480 2840 c0 -12 -7 -32 -16 -46 -17 -25 -14 -41 5 -29 6 3 11 14
11 24 0 10 7 24 15 31 8 7 15 19 15 26 0 8 -7 14 -15 14 -8 0 -15 -9 -15 -20z"/>
<path d="M1747 2033 c-16 -15 -6 -33 18 -33 28 0 34 24 9 34 -19 7 -19 7 -27
-1z"/>
<path d="M1870 1853 c0 -13 5 -23 10 -23 13 0 13 11 0 30 -8 12 -10 11 -10 -7z"/>
<path d="M1900 1800 c0 -5 5 -10 11 -10 5 0 7 5 4 10 -3 6 -8 10 -11 10 -2 0
-4 -4 -4 -10z"/>
<path d="M1580 3239 c0 -11 5 -17 10 -14 6 3 10 13 10 21 0 8 -4 14 -10 14 -5
0 -10 -9 -10 -21z"/>
<path d="M2875 2760 c3 -5 8 -10 11 -10 2 0 4 5 4 10 0 6 -5 10 -11 10 -5 0
-7 -4 -4 -10z"/>
<path d="M1920 5070 c0 -5 5 -10 10 -10 6 0 10 5 10 10 0 6 -4 10 -10 10 -5 0
-10 -4 -10 -10z"/>
<path d="M1900 4980 c0 -5 5 -10 10 -10 6 0 10 5 10 10 0 6 -4 10 -10 10 -5 0
-10 -4 -10 -10z"/>
<path d="M4162 2498 c2 -6 10 -14 16 -16 7 -2 10 2 6 12 -7 18 -28 22 -22 4z"/>
<path d="M4190 2456 c0 -9 5 -16 10 -16 6 0 10 4 10 9 0 6 -4 13 -10 16 -5 3
-10 -1 -10 -9z"/>
<path d="M4380 2096 c0 -9 5 -16 10 -16 6 0 10 4 10 9 0 6 -4 13 -10 16 -5 3
-10 -1 -10 -9z"/>
<path d="M4410 2040 c0 -5 5 -10 11 -10 5 0 7 5 4 10 -3 6 -8 10 -11 10 -2 0
-4 -4 -4 -10z"/>
<path d="M4430 2001 c0 -11 5 -23 10 -26 6 -3 10 -16 10 -28 0 -13 6 -31 13
-42 7 -11 21 -42 31 -70 10 -27 22 -59 27 -70 23 -52 36 -104 27 -113 -6 -6 0
-26 15 -53 42 -77 101 -386 101 -529 0 -95 -41 -338 -65 -381 -6 -11 -8 -23
-6 -26 3 -2 -12 -23 -34 -46 -42 -46 -39 -62 12 -52 30 6 37 14 62 68 15 34
34 76 42 92 14 31 18 54 36 239 14 138 -11 406 -41 453 -11 17 -11 24 -1 37
10 12 9 22 -7 53 -46 91 -52 106 -52 127 0 12 -4 26 -9 31 -5 6 -26 51 -46
100 -49 120 -84 193 -96 200 -5 4 -9 15 -9 25 0 10 -4 22 -10 25 -5 3 -10 -3
-10 -14z"/>
<path d="M4270 1966 c0 -9 5 -16 10 -16 6 0 10 4 10 9 0 6 -4 13 -10 16 -5 3
-10 -1 -10 -9z"/>
<path d="M4300 1900 c0 -5 5 -10 11 -10 5 0 7 5 4 10 -3 6 -8 10 -11 10 -2 0
-4 -4 -4 -10z"/>
<path d="M812 1145 c0 -16 2 -22 5 -12 2 9 2 23 0 30 -3 6 -5 -1 -5 -18z"/>
<path d="M725 855 c-5 -11 -16 -25 -24 -32 -9 -7 -11 -12 -6 -12 20 0 47 28
42 46 -4 17 -4 17 -12 -2z"/>
<path d="M1790 766 c0 -9 5 -16 10 -16 6 0 10 4 10 9 0 6 -4 13 -10 16 -5 3
-10 -1 -10 -9z"/>
<path d="M4345 720 c3 -5 11 -10 16 -10 6 0 7 5 4 10 -3 6 -11 10 -16 10 -6 0
-7 -4 -4 -10z"/>
<path d="M1291 624 c0 -11 3 -14 6 -6 3 7 2 16 -1 19 -3 4 -6 -2 -5 -13z"/>
<path d="M3528 584 c-5 -4 -8 -23 -8 -43 0 -25 3 -32 11 -24 6 6 9 25 7 43 -2
17 -6 28 -10 24z"/>
<path d="M2010 530 c0 -5 5 -10 10 -10 6 0 10 5 10 10 0 6 -4 10 -10 10 -5 0
-10 -4 -10 -10z"/>
<path d="M1500 410 c0 -5 5 -10 10 -10 6 0 10 5 10 10 0 6 -4 10 -10 10 -5 0
-10 -4 -10 -10z"/>
<path d="M3501 387 c0 -16 -6 -37 -11 -48 -8 -15 -7 -19 4 -19 22 0 25 10 16
55 -6 32 -8 35 -9 12z"/>
<path d="M1321 344 c0 -11 3 -14 6 -6 3 7 2 16 -1 19 -3 4 -6 -2 -5 -13z"/>
<path d="M1550 346 c0 -9 5 -16 10 -16 6 0 10 4 10 9 0 6 -4 13 -10 16 -5 3
-10 -1 -10 -9z"/>
<path d="M3630 116 c0 -9 5 -16 10 -16 6 0 10 4 10 9 0 6 -4 13 -10 16 -5 3
-10 -1 -10 -9z"/>
<path d="M3680 16 c0 -9 5 -16 10 -16 6 0 10 4 10 9 0 6 -4 13 -10 16 -5 3
-10 -1 -10 -9z"/>
<path d="M3025 10 c-3 -5 1 -10 10 -10 9 0 13 5 10 10 -3 6 -8 10 -10 10 -2 0
-7 -4 -10 -10z"/>
</g>
</svg>
